<svg viewBox="0 0 72 72" xmlns="http://www.w3.org/2000/svg"><path d="m4 4h64v64h-64z" fill="#e27022"/><g fill="#f4aa41"><path d="m68 4h-8l-16 31 4 3 17-20 3-3.231"/><path d="m4 17.562 2.019 1.913 18.531 18.591 3.75-3.308-19.3-30.758h-5z"/><path d="m30.879 4 2.469 28.375 4.983.412 3.749-25.98.486-2.807"/></g><path d="m50.9612 49.0783c-.2669 3.1308-5.2035 14.6638-16.0395 13.8829a15 15 0 0 1 -13.8829-16.0395c.627-8.7 8.6625-14.3418 16.04-13.8829 6.9914.4348 11.089 6.2058 11.6543 7.0295a14.6318 14.6318 0 0 1 2.1067 5.5473 16.4018 16.4018 0 0 1 .1214 3.4627z" fill="#fcea2b"/><path d="m4 42.636 11.889-9.226 38.98 34.59h-50.869z" fill="#d0cfce"/><path d="m41.492 54.869 26.508-26.925v40.056h-13.131" fill="#9b9b9a"/><path d="m25.75 37.0488a15.0248 15.0248 0 0 1 14.7118-3.3742 15.3622 15.3622 0 0 1 7.5867 5.3881 11.5175 11.5175 0 0 1 1.6933 2.88" fill="none" stroke="#000" stroke-linecap="round" stroke-miterlimit="10" stroke-width="2"/><path d="m5 42.416 11.34-9.561 38.406 34.145" fill="none" stroke="#000" stroke-linecap="round" stroke-linejoin="round" stroke-width="2"/><path d="m42.9832 53.4452 23.7722-25.2256" fill="none" stroke="#000" stroke-linecap="round" stroke-linejoin="round" stroke-width="2"/></svg>